<svg width="512" height="512" viewBox="0 0 512 512" fill="none" xmlns="http://www.w3.org/2000/svg">
<path fill-rule="evenodd" clip-rule="evenodd" d="M88 40C114.51 40 136 61.4903 136 88C136 114.51 114.51 136 88 136C61.4903 136 40 114.51 40 88C40 61.4903 61.4903 40 88 40ZM88 376C114.51 376 136 397.49 136 424C136 450.51 114.51 472 88 472C61.4903 472 40 450.51 40 424C40 397.49 61.4903 376 88 376ZM472 424C472 397.49 450.51 376 424 376C397.49 376 376 397.49 376 424C376 450.51 397.49 472 424 472C450.51 472 472 450.51 472 424ZM424 40C450.51 40 472 61.4903 472 88C472 114.51 450.51 136 424 136C397.49 136 376 114.51 376 88C376 61.4903 397.49 40 424 40Z" />
<rect x="121" y="76" width="270" height="24" />
<path d="M335.045 360.098L338.58 363.634L342.116 360.098L359.086 343.127L362.622 339.592L359.086 336.056L239.111 216.081L235.576 212.546L232.04 216.081L215.069 233.052L211.534 236.587L215.069 240.123L335.045 360.098Z"  stroke="black" stroke-width="10"/>
<path fill-rule="evenodd" clip-rule="evenodd" d="M293.623 235.239L407.168 121.693L390.198 104.723L276.652 218.268L293.623 235.239ZM272.41 256.452L255.439 273.422L238.469 256.452L255.439 239.481L272.41 256.452ZM217.255 277.665L234.226 294.636L121.682 407.18L104.711 390.209L217.255 277.665Z" />
<rect x="121" y="412" width="270" height="24" />
<rect x="436" y="121" width="270" height="24" transform="rotate(90 436 121)" />
<rect x="100" y="121" width="270" height="24" transform="rotate(90 100 121)" />
<mask id="path-8-outside-1_3816_2510" maskUnits="userSpaceOnUse" x="151.701" y="150.137" width="106" height="106" >
<rect fill="white" x="151.701" y="150.137" width="106" height="106"/>
<path fill-rule="evenodd" clip-rule="evenodd" d="M158.701 216.101C160.043 220.979 162.164 225.639 165.005 229.891C170.224 237.702 177.643 243.791 186.322 247.386C195.002 250.981 204.552 251.922 213.767 250.089C222.981 248.256 231.444 243.732 238.087 237.089C244.73 230.446 249.254 221.982 251.087 212.768C252.92 203.554 251.979 194.004 248.384 185.324C244.789 176.645 238.701 169.226 230.889 164.007C225.98 160.726 220.528 158.407 214.822 157.137L211.023 180.545C213.404 181.222 215.678 182.268 217.759 183.658C221.683 186.281 224.742 190.008 226.549 194.369C228.355 198.73 228.827 203.528 227.907 208.157C226.986 212.787 224.713 217.039 221.375 220.377C218.038 223.715 213.785 225.988 209.156 226.908C204.526 227.829 199.728 227.357 195.367 225.55C191.006 223.744 187.279 220.685 184.656 216.76C183.685 215.306 182.881 213.756 182.254 212.142L158.701 216.101Z"/>
</mask>
<path fill-rule="evenodd" clip-rule="evenodd" d="M158.701 216.101C160.043 220.979 162.164 225.639 165.005 229.891C170.224 237.702 177.643 243.791 186.322 247.386C195.002 250.981 204.552 251.922 213.767 250.089C222.981 248.256 231.444 243.732 238.087 237.089C244.73 230.446 249.254 221.982 251.087 212.768C252.92 203.554 251.979 194.004 248.384 185.324C244.789 176.645 238.701 169.226 230.889 164.007C225.98 160.726 220.528 158.407 214.822 157.137L211.023 180.545C213.404 181.222 215.678 182.268 217.759 183.658C221.683 186.281 224.742 190.008 226.549 194.369C228.355 198.73 228.827 203.528 227.907 208.157C226.986 212.787 224.713 217.039 221.375 220.377C218.038 223.715 213.785 225.988 209.156 226.908C204.526 227.829 199.728 227.357 195.367 225.55C191.006 223.744 187.279 220.685 184.656 216.76C183.685 215.306 182.881 213.756 182.254 212.142L158.701 216.101Z" />
<path d="M158.701 216.101L157.872 211.17L152.411 212.088L153.88 217.427L158.701 216.101ZM165.005 229.891L169.162 227.113L169.162 227.113L165.005 229.891ZM186.322 247.386L188.236 242.766L188.236 242.766L186.322 247.386ZM213.767 250.089L212.791 245.185L212.791 245.185L213.767 250.089ZM251.087 212.768L255.991 213.744L255.991 213.744L251.087 212.768ZM248.384 185.324L253.003 183.411L253.003 183.411L248.384 185.324ZM230.889 164.007L228.112 168.164L228.112 168.164L230.889 164.007ZM214.822 157.137L215.909 152.256L210.736 151.104L209.887 156.336L214.822 157.137ZM211.023 180.545L206.088 179.744L205.375 184.138L209.657 185.355L211.023 180.545ZM217.759 183.658L220.537 179.501L220.537 179.501L217.759 183.658ZM226.549 194.369L221.929 196.282L221.929 196.282L226.549 194.369ZM227.907 208.157L232.811 209.133L232.811 209.133L227.907 208.157ZM221.375 220.377L224.911 223.912L224.911 223.912L221.375 220.377ZM209.156 226.908L208.18 222.004L208.18 222.004L209.156 226.908ZM184.656 216.76L180.499 219.538L180.499 219.538L184.656 216.76ZM182.254 212.142L186.914 210.332L185.44 206.536L181.425 207.211L182.254 212.142ZM153.88 217.427C155.364 222.819 157.707 227.969 160.848 232.669L169.162 227.113C166.62 223.308 164.723 219.14 163.522 214.774L153.88 217.427ZM160.848 232.669C166.616 241.303 174.816 248.032 184.409 252.005L188.236 242.766C180.47 239.55 173.832 234.102 169.162 227.113L160.848 232.669ZM184.409 252.005C194.002 255.979 204.558 257.019 214.742 254.993L212.791 245.185C204.547 246.825 196.002 245.983 188.236 242.766L184.409 252.005ZM214.742 254.993C224.926 252.967 234.281 247.967 241.623 240.625L234.552 233.554C228.608 239.497 221.035 243.545 212.791 245.185L214.742 254.993ZM241.623 240.625C248.965 233.282 253.965 223.928 255.991 213.744L246.183 211.793C244.543 220.037 240.496 227.61 234.552 233.554L241.623 240.625ZM255.991 213.744C258.017 203.56 256.977 193.004 253.003 183.411L243.765 187.238C246.981 195.003 247.823 203.549 246.183 211.793L255.991 213.744ZM253.003 183.411C249.03 173.818 242.301 165.618 233.667 159.849L228.112 168.164C235.101 172.834 240.548 179.472 243.765 187.238L253.003 183.411ZM233.667 159.849C228.241 156.224 222.215 153.66 215.909 152.256L213.736 162.017C218.841 163.154 223.719 165.229 228.112 168.164L233.667 159.849ZM209.887 156.336L206.088 179.744L215.959 181.346L219.758 157.938L209.887 156.336ZM209.657 185.355C211.539 185.89 213.336 186.717 214.981 187.816L220.537 179.501C218.02 177.82 215.27 176.554 212.39 175.736L209.657 185.355ZM214.981 187.816C218.083 189.889 220.501 192.835 221.929 196.282L231.168 192.455C228.983 187.181 225.283 182.673 220.537 179.501L214.981 187.816ZM221.929 196.282C223.357 199.729 223.731 203.523 223.003 207.182L232.811 209.133C233.924 203.534 233.353 197.73 231.168 192.455L221.929 196.282ZM223.003 207.182C222.275 210.842 220.478 214.203 217.84 216.841L224.911 223.912C228.948 219.876 231.697 214.732 232.811 209.133L223.003 207.182ZM217.84 216.841C215.201 219.48 211.84 221.277 208.18 222.004L210.131 231.812C215.73 230.699 220.874 227.949 224.911 223.912L217.84 216.841ZM208.18 222.004C204.521 222.732 200.728 222.359 197.28 220.931L193.454 230.17C198.728 232.354 204.532 232.926 210.131 231.812L208.18 222.004ZM197.28 220.931C193.833 219.503 190.887 217.085 188.814 213.983L180.499 219.538C183.671 224.285 188.179 227.985 193.454 230.17L197.28 220.931ZM188.814 213.983C188.045 212.833 187.41 211.608 186.914 210.332L177.593 213.952C178.351 215.905 179.324 217.779 180.499 219.538L188.814 213.983ZM181.425 207.211L157.872 211.17L159.53 221.031L183.082 217.073L181.425 207.211Z"  mask="url(#path-8-outside-1_3816_2510)"/>
</svg>
